<?xml version="1.0" standalone="no"?>
<!DOCTYPE svg PUBLIC "-//W3C//DTD SVG 20010904//EN"
 "http://www.w3.org/TR/2001/REC-SVG-20010904/DTD/svg10.dtd">
<svg version="1.0" xmlns="http://www.w3.org/2000/svg"
 width="500.000000pt" height="500.000000pt" viewBox="0 0 500.000000 500.000000"
 preserveAspectRatio="xMidYMid meet">

<g transform="translate(0.000000,500.000000) scale(0.100000,-0.100000)"
fill="#000000" stroke="none">
<path d="M2520 2760 l0 -610 235 0 235 0 0 65 0 65 -165 0 -165 0 -2 543 -3
542 -67 3 -68 3 0 -611z"/>
<path d="M1192 3307 c2 -8 138 -264 303 -570 l300 -557 40 0 41 0 279 518
c153 284 292 541 308 570 l29 52 -39 0 -39 0 -239 -442 c-132 -244 -262 -485
-289 -536 l-49 -92 -27 47 c-15 27 -145 267 -289 536 l-263 487 -35 0 c-24 0
-33 -4 -31 -13z"/>
<path d="M1250 1912 c0 -6 14 -41 31 -79 l31 -68 24 54 c34 76 40 119 7 49
-15 -32 -30 -58 -33 -58 -3 0 -14 23 -25 51 -19 48 -35 72 -35 51z"/>
<path d="M1552 1860 c-2 -73 7 -90 48 -90 41 0 50 17 48 90 l-2 65 -3 -62 c-3
-50 -8 -65 -23 -73 -14 -8 -26 -8 -40 0 -15 8 -20 23 -23 73 l-3 62 -2 -65z"/>
<path d="M1840 1845 l0 -75 48 1 47 2 -40 6 c-34 5 -40 10 -40 31 0 20 5 25
27 25 14 0 30 3 34 8 4 4 -9 7 -29 7 -33 0 -37 3 -37 25 0 22 4 25 35 25 19 0
35 5 35 10 0 6 -18 10 -40 10 l-40 0 0 -75z"/>
<path d="M2100 1910 c0 -5 7 -10 15 -10 12 0 15 -14 15 -65 0 -37 4 -65 10
-65 6 0 10 28 10 65 0 51 3 65 15 65 8 0 15 5 15 10 0 6 -18 10 -40 10 -22 0
-40 -4 -40 -10z"/>
<path d="M2363 1845 c0 -50 2 -67 6 -45 5 31 10 35 39 38 31 3 32 2 32 -32 0
-20 5 -36 10 -36 6 0 10 30 10 69 0 39 -4 73 -10 76 -6 4 -10 -8 -10 -29 0
-34 -2 -36 -34 -36 -33 0 -35 2 -39 38 -2 20 -4 1 -4 -43z"/>
<path d="M2858 1914 c-5 -4 -8 -38 -8 -76 l0 -68 35 0 c19 0 35 5 35 10 0 6
-11 10 -25 10 -23 0 -24 3 -27 66 -2 36 -6 62 -10 58z"/>
<path d="M3131 1899 c-5 -13 -18 -48 -30 -76 -11 -29 -17 -53 -12 -53 6 0 13
9 16 20 5 15 15 20 40 20 25 0 35 -5 40 -20 3 -11 10 -20 15 -20 8 0 -43 136
-55 148 -2 3 -9 -6 -14 -19z m39 -71 c0 -5 -11 -8 -25 -8 -29 0 -29 -1 -14 37
l11 28 13 -25 c8 -14 14 -28 15 -32z"/>
<path d="M3380 1845 l0 -75 34 0 c31 0 66 20 66 38 0 4 -7 17 -15 29 -10 14
-12 24 -5 28 27 16 -9 55 -51 55 l-29 0 0 -75z m68 33 c3 -13 -3 -18 -22 -18
-20 0 -26 5 -26 21 0 15 5 20 22 17 13 -2 24 -11 26 -20z m9 -54 c4 -11 -1
-22 -12 -30 -30 -22 -45 -17 -45 16 0 25 4 30 25 30 15 0 28 -7 32 -16z"/>
<path d="M3656 1899 c-20 -29 -12 -44 35 -62 30 -12 40 -21 37 -34 -4 -19 -37
-23 -73 -8 -18 8 -19 7 -6 -8 16 -20 71 -23 89 -5 25 25 13 48 -33 68 -25 11
-45 24 -45 29 0 17 35 31 51 20 22 -14 33 -11 19 6 -18 22 -56 18 -74 -6z"/>
</g>
</svg>
